<mxfile host="app.diagrams.net" modified="2023-10-10T06:46:02.970Z" agent="Mozilla/5.0 (X11; Linux x86_64) AppleWebKit/537.36 (KHTML, like Gecko) Chrome/115.0.0.0 Safari/537.36" etag="gWNk5eiIQYzc3bJfQGeR" version="22.0.4" type="github">
  <diagram name="Page-1" id="e56a1550-8fbb-45ad-956c-1786394a9013">
    <mxGraphModel dx="1006" dy="573" grid="1" gridSize="10" guides="1" tooltips="1" connect="1" arrows="1" fold="1" page="1" pageScale="1" pageWidth="1100" pageHeight="850" background="none" math="0" shadow="0">
      <root>
        <mxCell id="0" />
        <mxCell id="1" parent="0" />
        <mxCell id="nGp-WrUuMPf5eKJ04AvS-1" value="课程" style="whiteSpace=wrap;html=1;align=center;fillColor=none;fontSize=15;labelBorderColor=none;labelBackgroundColor=none;" vertex="1" parent="1">
          <mxGeometry x="480" y="240" width="80" height="40" as="geometry" />
        </mxCell>
        <mxCell id="nGp-WrUuMPf5eKJ04AvS-2" value="教师" style="whiteSpace=wrap;html=1;align=center;fillColor=none;fontSize=15;labelBorderColor=none;labelBackgroundColor=none;" vertex="1" parent="1">
          <mxGeometry x="201" y="240" width="80" height="40" as="geometry" />
        </mxCell>
        <mxCell id="nGp-WrUuMPf5eKJ04AvS-4" value="学院" style="whiteSpace=wrap;html=1;align=center;fillColor=none;fontSize=15;labelBorderColor=none;labelBackgroundColor=none;" vertex="1" parent="1">
          <mxGeometry x="200" y="480" width="80" height="40" as="geometry" />
        </mxCell>
        <mxCell id="nGp-WrUuMPf5eKJ04AvS-5" value="学生" style="whiteSpace=wrap;html=1;align=center;fillColor=none;fontSize=15;labelBorderColor=none;labelBackgroundColor=none;" vertex="1" parent="1">
          <mxGeometry x="480" y="480" width="80" height="40" as="geometry" />
        </mxCell>
        <mxCell id="nGp-WrUuMPf5eKJ04AvS-8" value="课程名称" style="ellipse;whiteSpace=wrap;html=1;align=center;fontSize=15;fillColor=none;labelBorderColor=none;labelBackgroundColor=none;" vertex="1" parent="1">
          <mxGeometry x="520" y="180" width="40" height="40" as="geometry" />
        </mxCell>
        <mxCell id="nGp-WrUuMPf5eKJ04AvS-11" value="编号" style="ellipse;whiteSpace=wrap;html=1;align=center;fontSize=15;fillColor=none;labelBorderColor=none;labelBackgroundColor=none;" vertex="1" parent="1">
          <mxGeometry x="580" y="180" width="40" height="40" as="geometry" />
        </mxCell>
        <mxCell id="nGp-WrUuMPf5eKJ04AvS-12" value="课时数" style="ellipse;whiteSpace=wrap;html=1;align=center;fontSize=15;fillColor=none;labelBorderColor=none;labelBackgroundColor=none;" vertex="1" parent="1">
          <mxGeometry x="580" y="240" width="40" height="40" as="geometry" />
        </mxCell>
        <mxCell id="nGp-WrUuMPf5eKJ04AvS-13" value="" style="endArrow=none;html=1;rounded=0;exitX=1;exitY=0.5;exitDx=0;exitDy=0;entryX=0;entryY=0.5;entryDx=0;entryDy=0;fontSize=15;labelBorderColor=none;labelBackgroundColor=none;" edge="1" parent="1" source="nGp-WrUuMPf5eKJ04AvS-2" target="nGp-WrUuMPf5eKJ04AvS-15">
          <mxGeometry relative="1" as="geometry">
            <mxPoint x="440" y="390" as="sourcePoint" />
            <mxPoint x="370" y="260" as="targetPoint" />
          </mxGeometry>
        </mxCell>
        <mxCell id="nGp-WrUuMPf5eKJ04AvS-14" value="n" style="edgeLabel;html=1;align=center;verticalAlign=middle;resizable=0;points=[];fontSize=15;labelBorderColor=none;labelBackgroundColor=default;" vertex="1" connectable="0" parent="nGp-WrUuMPf5eKJ04AvS-13">
          <mxGeometry x="-0.0741" relative="1" as="geometry">
            <mxPoint as="offset" />
          </mxGeometry>
        </mxCell>
        <mxCell id="nGp-WrUuMPf5eKJ04AvS-15" value="讲授" style="shape=rhombus;perimeter=rhombusPerimeter;whiteSpace=wrap;html=1;align=center;fontSize=15;fillColor=none;labelBorderColor=none;labelBackgroundColor=none;" vertex="1" parent="1">
          <mxGeometry x="340" y="240" width="80" height="40" as="geometry" />
        </mxCell>
        <mxCell id="nGp-WrUuMPf5eKJ04AvS-16" value="" style="endArrow=none;html=1;rounded=0;exitX=1;exitY=0.5;exitDx=0;exitDy=0;entryX=0;entryY=0.5;entryDx=0;entryDy=0;fontSize=15;labelBorderColor=none;labelBackgroundColor=none;" edge="1" parent="1" source="nGp-WrUuMPf5eKJ04AvS-15" target="nGp-WrUuMPf5eKJ04AvS-1">
          <mxGeometry relative="1" as="geometry">
            <mxPoint x="440" y="390" as="sourcePoint" />
            <mxPoint x="600" y="390" as="targetPoint" />
          </mxGeometry>
        </mxCell>
        <mxCell id="nGp-WrUuMPf5eKJ04AvS-17" value="m" style="edgeLabel;html=1;align=center;verticalAlign=middle;resizable=0;points=[];fontSize=15;labelBorderColor=none;labelBackgroundColor=default;" vertex="1" connectable="0" parent="nGp-WrUuMPf5eKJ04AvS-16">
          <mxGeometry x="-0.1153" y="1" relative="1" as="geometry">
            <mxPoint x="-1" as="offset" />
          </mxGeometry>
        </mxCell>
        <mxCell id="nGp-WrUuMPf5eKJ04AvS-18" value="" style="endArrow=none;html=1;rounded=0;exitX=0.5;exitY=1;exitDx=0;exitDy=0;entryX=0.75;entryY=0;entryDx=0;entryDy=0;fontSize=15;labelBorderColor=none;labelBackgroundColor=none;" edge="1" parent="1" source="nGp-WrUuMPf5eKJ04AvS-8" target="nGp-WrUuMPf5eKJ04AvS-1">
          <mxGeometry relative="1" as="geometry">
            <mxPoint x="430" y="270" as="sourcePoint" />
            <mxPoint x="490" y="270" as="targetPoint" />
          </mxGeometry>
        </mxCell>
        <mxCell id="nGp-WrUuMPf5eKJ04AvS-19" value="" style="endArrow=none;html=1;rounded=0;entryX=0.75;entryY=0;entryDx=0;entryDy=0;fontSize=15;labelBorderColor=none;labelBackgroundColor=none;exitX=0.5;exitY=1;exitDx=0;exitDy=0;" edge="1" parent="1" source="nGp-WrUuMPf5eKJ04AvS-61" target="nGp-WrUuMPf5eKJ04AvS-2">
          <mxGeometry relative="1" as="geometry">
            <mxPoint x="280" y="230" as="sourcePoint" />
            <mxPoint x="541" y="280" as="targetPoint" />
          </mxGeometry>
        </mxCell>
        <mxCell id="nGp-WrUuMPf5eKJ04AvS-20" value="" style="endArrow=none;html=1;rounded=0;exitX=0.5;exitY=1;exitDx=0;exitDy=0;entryX=0.25;entryY=0;entryDx=0;entryDy=0;fontSize=15;labelBorderColor=none;labelBackgroundColor=none;" edge="1" parent="1" source="nGp-WrUuMPf5eKJ04AvS-62" target="nGp-WrUuMPf5eKJ04AvS-2">
          <mxGeometry relative="1" as="geometry">
            <mxPoint x="221" y="220" as="sourcePoint" />
            <mxPoint x="551" y="290" as="targetPoint" />
          </mxGeometry>
        </mxCell>
        <mxCell id="nGp-WrUuMPf5eKJ04AvS-21" value="" style="endArrow=none;html=1;rounded=0;entryX=0;entryY=0;entryDx=0;entryDy=0;exitX=1;exitY=1;exitDx=0;exitDy=0;fontSize=15;labelBorderColor=none;labelBackgroundColor=none;" edge="1" parent="1" source="nGp-WrUuMPf5eKJ04AvS-63" target="nGp-WrUuMPf5eKJ04AvS-2">
          <mxGeometry relative="1" as="geometry">
            <mxPoint x="175.14213562373106" y="214.14213562373106" as="sourcePoint" />
            <mxPoint x="171" y="240" as="targetPoint" />
          </mxGeometry>
        </mxCell>
        <mxCell id="nGp-WrUuMPf5eKJ04AvS-22" value="" style="endArrow=none;html=1;rounded=0;exitX=0;exitY=0.5;exitDx=0;exitDy=0;entryX=1;entryY=0.5;entryDx=0;entryDy=0;fontSize=15;labelBorderColor=none;labelBackgroundColor=none;" edge="1" parent="1" source="nGp-WrUuMPf5eKJ04AvS-12" target="nGp-WrUuMPf5eKJ04AvS-1">
          <mxGeometry relative="1" as="geometry">
            <mxPoint x="540" y="220" as="sourcePoint" />
            <mxPoint x="540" y="250" as="targetPoint" />
          </mxGeometry>
        </mxCell>
        <mxCell id="nGp-WrUuMPf5eKJ04AvS-23" value="" style="endArrow=none;html=1;rounded=0;exitX=0;exitY=1;exitDx=0;exitDy=0;entryX=1;entryY=0;entryDx=0;entryDy=0;fontSize=15;labelBorderColor=none;labelBackgroundColor=none;" edge="1" parent="1" source="nGp-WrUuMPf5eKJ04AvS-11" target="nGp-WrUuMPf5eKJ04AvS-1">
          <mxGeometry relative="1" as="geometry">
            <mxPoint x="550" y="230" as="sourcePoint" />
            <mxPoint x="550" y="260" as="targetPoint" />
          </mxGeometry>
        </mxCell>
        <mxCell id="nGp-WrUuMPf5eKJ04AvS-25" value="开课学期" style="ellipse;whiteSpace=wrap;html=1;align=center;fontSize=15;fillColor=none;labelBorderColor=none;labelBackgroundColor=none;" vertex="1" parent="1">
          <mxGeometry x="360" y="180" width="40" height="40" as="geometry" />
        </mxCell>
        <mxCell id="nGp-WrUuMPf5eKJ04AvS-26" value="" style="endArrow=none;html=1;rounded=0;exitX=0.5;exitY=1;exitDx=0;exitDy=0;entryX=0.5;entryY=0;entryDx=0;entryDy=0;fontSize=15;labelBorderColor=none;labelBackgroundColor=none;" edge="1" parent="1" source="nGp-WrUuMPf5eKJ04AvS-25" target="nGp-WrUuMPf5eKJ04AvS-15">
          <mxGeometry relative="1" as="geometry">
            <mxPoint x="420" y="390" as="sourcePoint" />
            <mxPoint x="580" y="390" as="targetPoint" />
          </mxGeometry>
        </mxCell>
        <mxCell id="nGp-WrUuMPf5eKJ04AvS-32" value="编号" style="ellipse;whiteSpace=wrap;html=1;align=center;fontSize=15;fillColor=none;labelBorderColor=none;labelBackgroundColor=none;" vertex="1" parent="1">
          <mxGeometry x="140" y="480" width="40" height="40" as="geometry" />
        </mxCell>
        <mxCell id="nGp-WrUuMPf5eKJ04AvS-33" value="下单&lt;br style=&quot;font-size: 15px;&quot;&gt;时间" style="ellipse;whiteSpace=wrap;html=1;align=center;fontSize=15;fillColor=none;labelBorderColor=none;labelBackgroundColor=none;" vertex="1" parent="1">
          <mxGeometry x="220" y="540" width="40" height="40" as="geometry" />
        </mxCell>
        <mxCell id="nGp-WrUuMPf5eKJ04AvS-34" value="" style="endArrow=none;html=1;rounded=0;entryX=0;entryY=0.5;entryDx=0;entryDy=0;exitX=1;exitY=0.5;exitDx=0;exitDy=0;fontSize=15;labelBorderColor=none;labelBackgroundColor=none;" edge="1" parent="1" source="nGp-WrUuMPf5eKJ04AvS-64" target="nGp-WrUuMPf5eKJ04AvS-2">
          <mxGeometry relative="1" as="geometry">
            <mxPoint x="181" y="260" as="sourcePoint" />
            <mxPoint x="211" y="250" as="targetPoint" />
          </mxGeometry>
        </mxCell>
        <mxCell id="nGp-WrUuMPf5eKJ04AvS-37" value="下单" style="shape=rhombus;perimeter=rhombusPerimeter;whiteSpace=wrap;html=1;align=center;fontSize=15;fillColor=none;labelBorderColor=none;labelBackgroundColor=none;" vertex="1" parent="1">
          <mxGeometry x="200" y="360" width="80" height="40" as="geometry" />
        </mxCell>
        <mxCell id="nGp-WrUuMPf5eKJ04AvS-38" value="" style="endArrow=none;html=1;rounded=0;entryX=0.5;entryY=0;entryDx=0;entryDy=0;exitX=0.5;exitY=1;exitDx=0;exitDy=0;fontSize=15;labelBorderColor=none;labelBackgroundColor=none;" edge="1" parent="1" source="nGp-WrUuMPf5eKJ04AvS-37" target="nGp-WrUuMPf5eKJ04AvS-4">
          <mxGeometry relative="1" as="geometry">
            <mxPoint x="420" y="415" as="sourcePoint" />
            <mxPoint x="80" y="425" as="targetPoint" />
          </mxGeometry>
        </mxCell>
        <mxCell id="nGp-WrUuMPf5eKJ04AvS-100" value="1" style="edgeLabel;html=1;align=center;verticalAlign=middle;resizable=0;points=[];fontSize=15;" vertex="1" connectable="0" parent="nGp-WrUuMPf5eKJ04AvS-38">
          <mxGeometry x="-0.0401" y="-1" relative="1" as="geometry">
            <mxPoint as="offset" />
          </mxGeometry>
        </mxCell>
        <mxCell id="nGp-WrUuMPf5eKJ04AvS-40" value="" style="endArrow=none;html=1;rounded=0;exitX=0.5;exitY=0;exitDx=0;exitDy=0;fontSize=15;labelBorderColor=none;labelBackgroundColor=none;entryX=0.5;entryY=1;entryDx=0;entryDy=0;" edge="1" parent="1" source="nGp-WrUuMPf5eKJ04AvS-33" target="nGp-WrUuMPf5eKJ04AvS-4">
          <mxGeometry relative="1" as="geometry">
            <mxPoint x="260" y="470" as="sourcePoint" />
            <mxPoint x="200" y="530" as="targetPoint" />
          </mxGeometry>
        </mxCell>
        <mxCell id="nGp-WrUuMPf5eKJ04AvS-41" value="" style="endArrow=none;html=1;rounded=0;entryX=0;entryY=0.5;entryDx=0;entryDy=0;exitX=1;exitY=0.5;exitDx=0;exitDy=0;fontSize=15;labelBorderColor=none;labelBackgroundColor=none;" edge="1" parent="1" source="nGp-WrUuMPf5eKJ04AvS-32" target="nGp-WrUuMPf5eKJ04AvS-4">
          <mxGeometry relative="1" as="geometry">
            <mxPoint x="180" y="440" as="sourcePoint" />
            <mxPoint x="230" y="470" as="targetPoint" />
          </mxGeometry>
        </mxCell>
        <mxCell id="nGp-WrUuMPf5eKJ04AvS-46" value="编号" style="ellipse;whiteSpace=wrap;html=1;align=center;fontSize=15;fillColor=none;labelBorderColor=none;labelBackgroundColor=none;" vertex="1" parent="1">
          <mxGeometry x="420" y="420" width="40" height="40" as="geometry" />
        </mxCell>
        <mxCell id="nGp-WrUuMPf5eKJ04AvS-48" value="" style="endArrow=none;html=1;rounded=0;entryX=0.5;entryY=1;entryDx=0;entryDy=0;exitX=0.5;exitY=0;exitDx=0;exitDy=0;fontSize=15;labelBorderColor=none;labelBackgroundColor=none;" edge="1" parent="1" source="nGp-WrUuMPf5eKJ04AvS-59" target="nGp-WrUuMPf5eKJ04AvS-1">
          <mxGeometry relative="1" as="geometry">
            <mxPoint x="460" y="300" as="sourcePoint" />
            <mxPoint x="680" y="440" as="targetPoint" />
          </mxGeometry>
        </mxCell>
        <mxCell id="nGp-WrUuMPf5eKJ04AvS-74" value="m" style="edgeLabel;html=1;align=center;verticalAlign=middle;resizable=0;points=[];fontSize=15;" vertex="1" connectable="0" parent="nGp-WrUuMPf5eKJ04AvS-48">
          <mxGeometry x="0.0895" y="-1" relative="1" as="geometry">
            <mxPoint as="offset" />
          </mxGeometry>
        </mxCell>
        <mxCell id="nGp-WrUuMPf5eKJ04AvS-50" value="" style="endArrow=none;html=1;rounded=0;fontSize=15;labelBorderColor=none;labelBackgroundColor=none;entryX=0;entryY=0;entryDx=0;entryDy=0;exitX=1;exitY=1;exitDx=0;exitDy=0;" edge="1" parent="1" source="nGp-WrUuMPf5eKJ04AvS-46" target="nGp-WrUuMPf5eKJ04AvS-5">
          <mxGeometry relative="1" as="geometry">
            <mxPoint x="450" y="470" as="sourcePoint" />
            <mxPoint x="490" y="470" as="targetPoint" />
          </mxGeometry>
        </mxCell>
        <mxCell id="nGp-WrUuMPf5eKJ04AvS-52" value="包含" style="shape=rhombus;perimeter=rhombusPerimeter;whiteSpace=wrap;html=1;align=center;fontSize=15;fillColor=none;labelBorderColor=none;labelBackgroundColor=none;" vertex="1" parent="1">
          <mxGeometry x="340" y="480" width="80" height="40" as="geometry" />
        </mxCell>
        <mxCell id="nGp-WrUuMPf5eKJ04AvS-53" value="" style="endArrow=none;html=1;rounded=0;entryX=1;entryY=0.5;entryDx=0;entryDy=0;exitX=0;exitY=0.5;exitDx=0;exitDy=0;fontSize=15;labelBorderColor=none;labelBackgroundColor=none;" edge="1" parent="1" source="nGp-WrUuMPf5eKJ04AvS-52" target="nGp-WrUuMPf5eKJ04AvS-4">
          <mxGeometry relative="1" as="geometry">
            <mxPoint x="320" y="500" as="sourcePoint" />
            <mxPoint x="410" y="540" as="targetPoint" />
          </mxGeometry>
        </mxCell>
        <mxCell id="nGp-WrUuMPf5eKJ04AvS-54" value="1" style="edgeLabel;html=1;align=center;verticalAlign=middle;resizable=0;points=[];fontSize=15;labelBorderColor=none;labelBackgroundColor=default;" vertex="1" connectable="0" parent="nGp-WrUuMPf5eKJ04AvS-53">
          <mxGeometry x="-0.0241" y="1" relative="1" as="geometry">
            <mxPoint as="offset" />
          </mxGeometry>
        </mxCell>
        <mxCell id="nGp-WrUuMPf5eKJ04AvS-55" value="" style="endArrow=none;html=1;rounded=0;exitX=0;exitY=0.5;exitDx=0;exitDy=0;entryX=1;entryY=0.5;entryDx=0;entryDy=0;fontSize=15;labelBorderColor=none;labelBackgroundColor=none;" edge="1" parent="1" source="nGp-WrUuMPf5eKJ04AvS-5" target="nGp-WrUuMPf5eKJ04AvS-52">
          <mxGeometry relative="1" as="geometry">
            <mxPoint x="420" y="460" as="sourcePoint" />
            <mxPoint x="380" y="490" as="targetPoint" />
          </mxGeometry>
        </mxCell>
        <mxCell id="nGp-WrUuMPf5eKJ04AvS-56" value="n" style="edgeLabel;html=1;align=center;verticalAlign=middle;resizable=0;points=[];fontSize=15;labelBorderColor=none;labelBackgroundColor=default;" vertex="1" connectable="0" parent="nGp-WrUuMPf5eKJ04AvS-55">
          <mxGeometry x="-0.0741" relative="1" as="geometry">
            <mxPoint x="-2" as="offset" />
          </mxGeometry>
        </mxCell>
        <mxCell id="nGp-WrUuMPf5eKJ04AvS-57" value="" style="endArrow=none;html=1;rounded=0;exitX=0.5;exitY=0;exitDx=0;exitDy=0;entryX=0.5;entryY=1;entryDx=0;entryDy=0;fontSize=15;labelBorderColor=none;labelBackgroundColor=none;" edge="1" parent="1" source="nGp-WrUuMPf5eKJ04AvS-5" target="nGp-WrUuMPf5eKJ04AvS-59">
          <mxGeometry relative="1" as="geometry">
            <mxPoint x="530" y="490" as="sourcePoint" />
            <mxPoint x="520" y="420" as="targetPoint" />
          </mxGeometry>
        </mxCell>
        <mxCell id="nGp-WrUuMPf5eKJ04AvS-58" value="n" style="edgeLabel;html=1;align=center;verticalAlign=middle;resizable=0;points=[];fontSize=15;labelBorderColor=none;labelBackgroundColor=default;" vertex="1" connectable="0" parent="nGp-WrUuMPf5eKJ04AvS-57">
          <mxGeometry x="0.0775" y="1" relative="1" as="geometry">
            <mxPoint as="offset" />
          </mxGeometry>
        </mxCell>
        <mxCell id="nGp-WrUuMPf5eKJ04AvS-59" value="学习" style="shape=rhombus;perimeter=rhombusPerimeter;whiteSpace=wrap;html=1;align=center;fontSize=15;fillColor=none;labelBorderColor=none;labelBackgroundColor=none;" vertex="1" parent="1">
          <mxGeometry x="480" y="360" width="80" height="40" as="geometry" />
        </mxCell>
        <mxCell id="nGp-WrUuMPf5eKJ04AvS-60" value="出生日期" style="ellipse;whiteSpace=wrap;html=1;align=center;fontSize=15;fillColor=none;labelBorderColor=none;labelBackgroundColor=none;" vertex="1" parent="1">
          <mxGeometry x="300" y="180" width="40" height="40" as="geometry" />
        </mxCell>
        <mxCell id="nGp-WrUuMPf5eKJ04AvS-61" value="学历" style="ellipse;whiteSpace=wrap;html=1;align=center;fontSize=15;fillColor=none;labelBorderColor=none;labelBackgroundColor=none;" vertex="1" parent="1">
          <mxGeometry x="241" y="180" width="40" height="40" as="geometry" />
        </mxCell>
        <mxCell id="nGp-WrUuMPf5eKJ04AvS-62" value="姓名" style="ellipse;whiteSpace=wrap;html=1;align=center;fontSize=15;fillColor=none;labelBorderColor=none;labelBackgroundColor=none;" vertex="1" parent="1">
          <mxGeometry x="201" y="180" width="40" height="40" as="geometry" />
        </mxCell>
        <mxCell id="nGp-WrUuMPf5eKJ04AvS-63" value="编号" style="ellipse;whiteSpace=wrap;html=1;align=center;fontSize=15;fillColor=none;labelBorderColor=none;labelBackgroundColor=none;" vertex="1" parent="1">
          <mxGeometry x="140" y="180" width="40" height="40" as="geometry" />
        </mxCell>
        <mxCell id="nGp-WrUuMPf5eKJ04AvS-64" value="职称" style="ellipse;whiteSpace=wrap;html=1;align=center;fontSize=15;fillColor=none;labelBorderColor=none;labelBackgroundColor=none;" vertex="1" parent="1">
          <mxGeometry x="140" y="240" width="40" height="40" as="geometry" />
        </mxCell>
        <mxCell id="nGp-WrUuMPf5eKJ04AvS-65" value="电话" style="ellipse;whiteSpace=wrap;html=1;align=center;fontSize=15;fillColor=none;labelBorderColor=none;labelBackgroundColor=none;" vertex="1" parent="1">
          <mxGeometry x="300" y="300" width="40" height="40" as="geometry" />
        </mxCell>
        <mxCell id="nGp-WrUuMPf5eKJ04AvS-66" value="工资" style="ellipse;whiteSpace=wrap;html=1;align=center;fontSize=15;fillColor=none;labelBorderColor=none;labelBackgroundColor=none;" vertex="1" parent="1">
          <mxGeometry x="140" y="300" width="40" height="40" as="geometry" />
        </mxCell>
        <mxCell id="nGp-WrUuMPf5eKJ04AvS-67" value="" style="endArrow=none;html=1;rounded=0;entryX=0;entryY=1;entryDx=0;entryDy=0;exitX=1;exitY=0;exitDx=0;exitDy=0;fontSize=15;labelBorderColor=none;labelBackgroundColor=none;" edge="1" parent="1" source="nGp-WrUuMPf5eKJ04AvS-66" target="nGp-WrUuMPf5eKJ04AvS-2">
          <mxGeometry relative="1" as="geometry">
            <mxPoint x="191" y="270" as="sourcePoint" />
            <mxPoint x="211" y="270" as="targetPoint" />
          </mxGeometry>
        </mxCell>
        <mxCell id="nGp-WrUuMPf5eKJ04AvS-68" value="" style="endArrow=none;html=1;rounded=0;entryX=1;entryY=0;entryDx=0;entryDy=0;exitX=0;exitY=1;exitDx=0;exitDy=0;fontSize=15;labelBorderColor=none;labelBackgroundColor=none;" edge="1" parent="1" source="nGp-WrUuMPf5eKJ04AvS-60" target="nGp-WrUuMPf5eKJ04AvS-2">
          <mxGeometry relative="1" as="geometry">
            <mxPoint x="184" y="224" as="sourcePoint" />
            <mxPoint x="211" y="250" as="targetPoint" />
          </mxGeometry>
        </mxCell>
        <mxCell id="nGp-WrUuMPf5eKJ04AvS-69" value="" style="endArrow=none;html=1;rounded=0;entryX=1;entryY=1;entryDx=0;entryDy=0;exitX=0;exitY=0;exitDx=0;exitDy=0;fontSize=15;labelBorderColor=none;labelBackgroundColor=none;" edge="1" parent="1" source="nGp-WrUuMPf5eKJ04AvS-65" target="nGp-WrUuMPf5eKJ04AvS-2">
          <mxGeometry relative="1" as="geometry">
            <mxPoint x="184" y="316" as="sourcePoint" />
            <mxPoint x="211" y="290" as="targetPoint" />
          </mxGeometry>
        </mxCell>
        <mxCell id="nGp-WrUuMPf5eKJ04AvS-70" value="先行课号" style="ellipse;whiteSpace=wrap;html=1;align=center;fontSize=15;fillColor=none;labelBorderColor=none;labelBackgroundColor=none;" vertex="1" parent="1">
          <mxGeometry x="480" y="180" width="40" height="40" as="geometry" />
        </mxCell>
        <mxCell id="nGp-WrUuMPf5eKJ04AvS-71" value="学分" style="ellipse;whiteSpace=wrap;html=1;align=center;fontSize=15;fillColor=none;labelBorderColor=none;labelBackgroundColor=none;" vertex="1" parent="1">
          <mxGeometry x="580" y="300" width="40" height="40" as="geometry" />
        </mxCell>
        <mxCell id="nGp-WrUuMPf5eKJ04AvS-72" value="" style="endArrow=none;html=1;rounded=0;exitX=0.5;exitY=1;exitDx=0;exitDy=0;entryX=0.25;entryY=0;entryDx=0;entryDy=0;fontSize=15;labelBorderColor=none;labelBackgroundColor=none;" edge="1" parent="1" source="nGp-WrUuMPf5eKJ04AvS-70" target="nGp-WrUuMPf5eKJ04AvS-1">
          <mxGeometry relative="1" as="geometry">
            <mxPoint x="550" y="230" as="sourcePoint" />
            <mxPoint x="550" y="250" as="targetPoint" />
          </mxGeometry>
        </mxCell>
        <mxCell id="nGp-WrUuMPf5eKJ04AvS-73" value="" style="endArrow=none;html=1;rounded=0;exitX=0;exitY=0;exitDx=0;exitDy=0;entryX=1;entryY=1;entryDx=0;entryDy=0;fontSize=15;labelBorderColor=none;labelBackgroundColor=none;" edge="1" parent="1" source="nGp-WrUuMPf5eKJ04AvS-71" target="nGp-WrUuMPf5eKJ04AvS-1">
          <mxGeometry relative="1" as="geometry">
            <mxPoint x="596" y="224" as="sourcePoint" />
            <mxPoint x="570" y="250" as="targetPoint" />
          </mxGeometry>
        </mxCell>
        <mxCell id="nGp-WrUuMPf5eKJ04AvS-75" value="专业" style="ellipse;whiteSpace=wrap;html=1;align=center;fontSize=15;fillColor=none;labelBorderColor=none;labelBackgroundColor=none;" vertex="1" parent="1">
          <mxGeometry x="580" y="420" width="40" height="40" as="geometry" />
        </mxCell>
        <mxCell id="nGp-WrUuMPf5eKJ04AvS-80" value="出生日期" style="ellipse;whiteSpace=wrap;html=1;align=center;fontSize=15;fillColor=none;labelBorderColor=none;labelBackgroundColor=none;" vertex="1" parent="1">
          <mxGeometry x="580" y="480" width="40" height="40" as="geometry" />
        </mxCell>
        <mxCell id="nGp-WrUuMPf5eKJ04AvS-81" value="籍贯" style="ellipse;whiteSpace=wrap;html=1;align=center;fontSize=15;fillColor=none;labelBorderColor=none;labelBackgroundColor=none;" vertex="1" parent="1">
          <mxGeometry x="580" y="540" width="40" height="40" as="geometry" />
        </mxCell>
        <mxCell id="nGp-WrUuMPf5eKJ04AvS-82" value="性别" style="ellipse;whiteSpace=wrap;html=1;align=center;fontSize=15;fillColor=none;labelBorderColor=none;labelBackgroundColor=none;" vertex="1" parent="1">
          <mxGeometry x="520" y="540" width="40" height="40" as="geometry" />
        </mxCell>
        <mxCell id="nGp-WrUuMPf5eKJ04AvS-83" value="" style="endArrow=none;html=1;rounded=0;exitX=0.5;exitY=0;exitDx=0;exitDy=0;entryX=0.75;entryY=1;entryDx=0;entryDy=0;fontSize=15;labelBorderColor=none;labelBackgroundColor=none;" edge="1" parent="1" source="nGp-WrUuMPf5eKJ04AvS-82" target="nGp-WrUuMPf5eKJ04AvS-5">
          <mxGeometry relative="1" as="geometry">
            <mxPoint x="510" y="550" as="sourcePoint" />
            <mxPoint x="510" y="530" as="targetPoint" />
          </mxGeometry>
        </mxCell>
        <mxCell id="nGp-WrUuMPf5eKJ04AvS-84" value="姓名" style="ellipse;whiteSpace=wrap;html=1;align=center;fontSize=15;fillColor=none;labelBorderColor=none;labelBackgroundColor=none;" vertex="1" parent="1">
          <mxGeometry x="420" y="540" width="40" height="40" as="geometry" />
        </mxCell>
        <mxCell id="nGp-WrUuMPf5eKJ04AvS-85" value="" style="endArrow=none;html=1;rounded=0;exitX=1;exitY=0;exitDx=0;exitDy=0;entryX=0;entryY=1;entryDx=0;entryDy=0;fontSize=15;labelBorderColor=none;labelBackgroundColor=none;" edge="1" parent="1" source="nGp-WrUuMPf5eKJ04AvS-84" target="nGp-WrUuMPf5eKJ04AvS-5">
          <mxGeometry relative="1" as="geometry">
            <mxPoint x="510" y="550" as="sourcePoint" />
            <mxPoint x="510" y="530" as="targetPoint" />
          </mxGeometry>
        </mxCell>
        <mxCell id="nGp-WrUuMPf5eKJ04AvS-86" value="" style="endArrow=none;html=1;rounded=0;exitX=0;exitY=0;exitDx=0;exitDy=0;entryX=1;entryY=1;entryDx=0;entryDy=0;fontSize=15;labelBorderColor=none;labelBackgroundColor=none;" edge="1" parent="1" source="nGp-WrUuMPf5eKJ04AvS-81" target="nGp-WrUuMPf5eKJ04AvS-5">
          <mxGeometry relative="1" as="geometry">
            <mxPoint x="464" y="556" as="sourcePoint" />
            <mxPoint x="490" y="530" as="targetPoint" />
          </mxGeometry>
        </mxCell>
        <mxCell id="nGp-WrUuMPf5eKJ04AvS-87" value="" style="endArrow=none;html=1;rounded=0;exitX=0;exitY=0.5;exitDx=0;exitDy=0;entryX=1;entryY=0.5;entryDx=0;entryDy=0;fontSize=15;labelBorderColor=none;labelBackgroundColor=none;" edge="1" parent="1" source="nGp-WrUuMPf5eKJ04AvS-80" target="nGp-WrUuMPf5eKJ04AvS-5">
          <mxGeometry relative="1" as="geometry">
            <mxPoint x="596" y="556" as="sourcePoint" />
            <mxPoint x="570" y="530" as="targetPoint" />
          </mxGeometry>
        </mxCell>
        <mxCell id="nGp-WrUuMPf5eKJ04AvS-88" value="" style="endArrow=none;html=1;rounded=0;exitX=0;exitY=1;exitDx=0;exitDy=0;entryX=1;entryY=0;entryDx=0;entryDy=0;fontSize=15;labelBorderColor=none;labelBackgroundColor=none;" edge="1" parent="1" source="nGp-WrUuMPf5eKJ04AvS-75" target="nGp-WrUuMPf5eKJ04AvS-5">
          <mxGeometry relative="1" as="geometry">
            <mxPoint x="590" y="510" as="sourcePoint" />
            <mxPoint x="570" y="510" as="targetPoint" />
          </mxGeometry>
        </mxCell>
        <mxCell id="nGp-WrUuMPf5eKJ04AvS-90" value="电话" style="ellipse;whiteSpace=wrap;html=1;align=center;fontSize=15;fillColor=none;labelBorderColor=none;labelBackgroundColor=none;" vertex="1" parent="1">
          <mxGeometry x="480" y="540" width="40" height="40" as="geometry" />
        </mxCell>
        <mxCell id="nGp-WrUuMPf5eKJ04AvS-91" value="" style="endArrow=none;html=1;rounded=0;exitX=0.5;exitY=0;exitDx=0;exitDy=0;entryX=0.25;entryY=1;entryDx=0;entryDy=0;fontSize=15;labelBorderColor=none;labelBackgroundColor=none;" edge="1" parent="1" source="nGp-WrUuMPf5eKJ04AvS-90" target="nGp-WrUuMPf5eKJ04AvS-5">
          <mxGeometry relative="1" as="geometry">
            <mxPoint x="570" y="550" as="sourcePoint" />
            <mxPoint x="550" y="530" as="targetPoint" />
          </mxGeometry>
        </mxCell>
        <mxCell id="nGp-WrUuMPf5eKJ04AvS-93" value="" style="endArrow=none;html=1;rounded=0;entryX=0.5;entryY=0;entryDx=0;entryDy=0;exitX=0.5;exitY=1;exitDx=0;exitDy=0;fontSize=15;labelBorderColor=none;labelBackgroundColor=none;" edge="1" parent="1" source="nGp-WrUuMPf5eKJ04AvS-2" target="nGp-WrUuMPf5eKJ04AvS-37">
          <mxGeometry relative="1" as="geometry">
            <mxPoint x="250" y="410" as="sourcePoint" />
            <mxPoint x="250" y="490" as="targetPoint" />
          </mxGeometry>
        </mxCell>
        <mxCell id="nGp-WrUuMPf5eKJ04AvS-102" value="n" style="edgeLabel;html=1;align=center;verticalAlign=middle;resizable=0;points=[];fontSize=15;" vertex="1" connectable="0" parent="nGp-WrUuMPf5eKJ04AvS-93">
          <mxGeometry x="-0.0613" y="1" relative="1" as="geometry">
            <mxPoint as="offset" />
          </mxGeometry>
        </mxCell>
        <mxCell id="nGp-WrUuMPf5eKJ04AvS-94" value="上课成绩" style="ellipse;whiteSpace=wrap;html=1;align=center;fontSize=15;fillColor=none;labelBorderColor=none;labelBackgroundColor=none;" vertex="1" parent="1">
          <mxGeometry x="580" y="360" width="40" height="40" as="geometry" />
        </mxCell>
        <mxCell id="nGp-WrUuMPf5eKJ04AvS-95" value="平时成绩" style="ellipse;whiteSpace=wrap;html=1;align=center;fontSize=15;fillColor=none;labelBorderColor=none;labelBackgroundColor=none;" vertex="1" parent="1">
          <mxGeometry x="420" y="360" width="40" height="40" as="geometry" />
        </mxCell>
        <mxCell id="nGp-WrUuMPf5eKJ04AvS-96" value="期末成绩" style="ellipse;whiteSpace=wrap;html=1;align=center;fontSize=15;fillColor=none;labelBorderColor=none;labelBackgroundColor=none;" vertex="1" parent="1">
          <mxGeometry x="420" y="300" width="40" height="40" as="geometry" />
        </mxCell>
        <mxCell id="nGp-WrUuMPf5eKJ04AvS-97" value="" style="endArrow=none;html=1;rounded=0;exitX=1;exitY=0.5;exitDx=0;exitDy=0;entryX=0;entryY=0.5;entryDx=0;entryDy=0;" edge="1" parent="1" source="nGp-WrUuMPf5eKJ04AvS-95" target="nGp-WrUuMPf5eKJ04AvS-59">
          <mxGeometry width="50" height="50" relative="1" as="geometry">
            <mxPoint x="430" y="380" as="sourcePoint" />
            <mxPoint x="480" y="330" as="targetPoint" />
          </mxGeometry>
        </mxCell>
        <mxCell id="nGp-WrUuMPf5eKJ04AvS-98" value="" style="endArrow=none;html=1;rounded=0;exitX=0;exitY=0.5;exitDx=0;exitDy=0;entryX=1;entryY=0.5;entryDx=0;entryDy=0;" edge="1" parent="1" source="nGp-WrUuMPf5eKJ04AvS-94" target="nGp-WrUuMPf5eKJ04AvS-59">
          <mxGeometry width="50" height="50" relative="1" as="geometry">
            <mxPoint x="470" y="390" as="sourcePoint" />
            <mxPoint x="490" y="390" as="targetPoint" />
          </mxGeometry>
        </mxCell>
        <mxCell id="nGp-WrUuMPf5eKJ04AvS-99" value="" style="endArrow=none;html=1;rounded=0;exitX=1;exitY=1;exitDx=0;exitDy=0;entryX=0;entryY=0;entryDx=0;entryDy=0;" edge="1" parent="1" source="nGp-WrUuMPf5eKJ04AvS-96" target="nGp-WrUuMPf5eKJ04AvS-59">
          <mxGeometry width="50" height="50" relative="1" as="geometry">
            <mxPoint x="480" y="400" as="sourcePoint" />
            <mxPoint x="500" y="400" as="targetPoint" />
          </mxGeometry>
        </mxCell>
      </root>
    </mxGraphModel>
  </diagram>
</mxfile>
